<?xml version="1.0" encoding="utf-8"?>
<!-- Generator: Adobe Illustrator 28.1.0, SVG Export Plug-In . SVG Version: 6.00 Build 0)  -->
<svg version="1.1" id="Layer_1" xmlns="http://www.w3.org/2000/svg" xmlns:xlink="http://www.w3.org/1999/xlink" x="0px" y="0px"
	 viewBox="0 0 192 192" style="enable-background:new 0 0 192 192;" xml:space="preserve">
<style type="text/css">
	.st0{fill:#5A9CB0;}
</style>
<path class="st0" d="M70.3,183.6v8.1H9.8V0.3h68.5l-2.6,15.2L61.5,28.9l-6.4,21.2l-8.9,16.8l-9,11.7v17.2l10,10.1L65,96.7l10.7-13.4
	l8.3,1.5l3.3,15.9l-27.2,30.5l-4.7,11.5l2.6,10.3l26.7,6.6l0.7,4.7l-3.3,19.3H70.3z M78.3,0.3l16,13.9l25,15.5l16,21.1l12.4,38.8
	l-1.1,32.1l-9.2,30.3l-26.1,7.9l-0.1,7.9v4.8l0,0l1,11h13.1v8.1h57V0.3H78.3z M64.9,49.8L75.8,40h-8.3L64.9,49.8z"/>
</svg>
