<?xml version="1.0" encoding="utf-8"?>
<!-- Generator: Adobe Illustrator 28.1.0, SVG Export Plug-In . SVG Version: 6.00 Build 0)  -->
<svg version="1.1" id="Layer_1" xmlns="http://www.w3.org/2000/svg" xmlns:xlink="http://www.w3.org/1999/xlink" x="0px" y="0px"
	 viewBox="0 0 488.7 236.5" style="enable-background:new 0 0 488.7 236.5;" xml:space="preserve">
<style type="text/css">
	.st0{fill:#28527A;}
	.st1{fill:#58A3BD;}
</style>
<g>
	<g>
		<g>
			<path class="st0" d="M246.7,74.4c-6.3-1.7-11.7-3-15.4-5.1c-1.9-1-3.2-2.2-4.2-3.7s-1.5-3.2-1.5-5.5c0-3,1.3-5.5,3.7-7.5
				c2.4-2,5.9-3.1,10.3-3.1c8.2,0,17.1,3.6,25.7,11l1.4,1.2L279.5,31l-0.8-0.6c-12.1-8.7-26-12.9-41.7-12.9
				c-14.8,0.1-27,5.1-35.6,13.7c-8.6,8.6-13.3,20.5-13.3,34c0,11.4,3.1,20,9.6,26.5c6.4,6.5,15.9,10.8,28.5,14.1
				c7.7,2.1,13.5,3.9,17.1,6.5c3.6,2.6,5.1,5.7,5.2,11.1c0,3.9-1.5,7.1-4.2,9.5c-2.7,2.4-6.7,4-11.6,4c-10.5,0-20.9-6.2-31.9-18.9
				l-1.1-1.4L181.3,148l0.7,0.7c15,14.7,30.2,21.1,49.8,21h0.1c16.4-0.1,30-5.3,39.5-14.4c9.4-9.1,14.7-22.1,14.7-37.2
				c0-13.4-3.5-22.7-10.3-29.4C268.8,81.8,259.1,77.8,246.7,74.4"/>
			<polygon class="st0" points="301.3,21.9 301.4,165.6 341.9,165.5 341.8,20.4 301.3,20.6 			"/>
			<path class="st0" d="M449.2,87.9c-6.7-6.7-16.4-10.8-28.8-14.1c-6.3-1.7-11.7-3-15.4-5.1c-1.9-1-3.2-2.2-4.2-3.7
				c-0.9-1.5-1.5-3.2-1.5-5.5c0-3,1.3-5.5,3.7-7.5c2.4-2,5.9-3.1,10.3-3.1c8.1,0,17.1,3.6,25.5,11l1.4,1.2l12.9-30.5l-0.8-0.6
				c-12.1-8.7-26-12.9-41.7-12.9c-14.8,0.1-27,5.1-35.6,13.7c-8.6,8.6-13.4,20.5-13.3,34c0,11.4,3.1,20,9.5,26.5
				s15.9,10.8,28.5,14.1c7.7,2,13.5,3.9,17.1,6.5c3.6,2.6,5.1,5.7,5.2,11.1c0,3.8-1.5,7.1-4.3,9.5c-2.7,2.4-6.7,4-11.6,4
				c-10.5,0-20.9-6.2-31.8-18.9l-1.2-1.4l-18.3,31.4l0.7,0.7c15,14.7,30,21.1,49.7,21h0.1c16.4-0.1,30-5.3,39.5-14.4
				c9.4-9.1,14.7-22.1,14.7-37.2C459.4,103.9,455.9,94.6,449.2,87.9"/>
		</g>
	</g>
	<g>
		<g>
			<path class="st1" d="M27.2,184.1h4.4v35.4h-4.4V184.1z"/>
			<path class="st1" d="M52.2,184.1l21.7,27.1v-27.1h4.3v35.4h-3l-21.7-27v27h-4.3v-35.4H52.2z"/>
			<path class="st1" d="M120.3,184.1v4.2h-20.2v12.3h19.3v4.1h-19.3v14.8h-4.4v-35.5H120.3z"/>
			<path class="st1" d="M164.5,188.9c3.2,3.6,4.7,7.9,4.7,12.9c0,2.4-0.4,4.6-1.1,6.8c-0.8,2.2-1.9,4.1-3.3,5.8
				c-1.4,1.7-3.3,3.1-5.6,4.1c-2.3,1-5,1.5-7.9,1.5c-2.9,0-5.6-0.5-7.9-1.5c-2.3-1-4.2-2.4-5.7-4.1c-1.4-1.7-2.5-3.7-3.3-5.8
				c-0.8-2.1-1.1-4.4-1.1-6.8c0-5.3,1.6-9.6,4.9-13.2s7.7-5.3,13.1-5.3C157,183.5,161.4,185.3,164.5,188.9z M163.4,195
				c-0.9-2.1-2.5-3.9-4.6-5.3c-2.1-1.4-4.6-2.1-7.6-2.2c-4.3,0-7.7,1.4-10.1,4.1c-2.4,2.7-3.6,6.2-3.6,10.2c0,3.9,1.2,7.2,3.5,10
				c2.4,2.8,5.7,4.1,10.1,4.1c4.3,0,7.7-1.4,10-4.2c2.3-2.8,3.5-6.1,3.5-10C164.8,199.4,164.4,197.1,163.4,195z"/>
			<path class="st1" d="M197.5,206.7h-8.6v12.7h-4.4v-35.4h16.1c3.8,0,6.7,1.1,8.8,3.3c2.1,2.2,3.2,4.9,3.2,8c0,2.9-0.8,5.4-2.5,7.5
				c-1.7,2.1-4.2,3.2-7.7,3.5l11.7,13.1h-5.6L197.5,206.7z M206.2,200.7c1.3-1.4,2-3.1,2-5.2c0-2-0.6-3.7-2-5.2
				c-1.3-1.5-3.2-2.3-5.6-2.3h-11.7v14.8h11.5C202.9,202.8,204.8,202.1,206.2,200.7z"/>
			<path class="st1" d="M246.7,208.4h-0.9l-12.8-18v29.1h-4.3v-35.4h5.3l12.4,18.2l12.3-18.2h5.3v35.4h-4.3v-29L246.7,208.4z"/>
			<path class="st1" d="M298.4,184.1l15.9,35.4h-4.8l-3.5-7.8h-20.2l-3.4,7.8h-4.8l15.9-35.4H298.4z M295.9,188.5l-8.4,19.1h16.8
				L295.9,188.5z"/>
			<path class="st1" d="M320.8,188v-3.9h28.5v3.9h-12.1v31.5h-4.3V188H320.8z"/>
			<path class="st1" d="M363,184.1h4.4v35.4H363V184.1z"/>
			<path class="st1" d="M401.3,220c-5.9,0-10.4-1.7-13.6-5.2c-3.2-3.5-4.8-7.8-4.8-12.8c0-3.2,0.6-6.2,1.9-9c1.3-2.7,3.4-5,6.3-6.8
				c2.9-1.8,6.3-2.7,10.3-2.7c5,0,9.3,1.8,12.9,5.3l-3,2.8c-2.7-2.6-6-3.9-9.9-3.9c-4.5,0-8,1.4-10.4,4.1c-2.4,2.8-3.6,6.1-3.6,10.1
				c0.1,3.9,1.3,7.2,3.7,9.9c2.4,2.7,5.9,4,10.4,4c4,0,7.3-1.4,10.1-4.1l3.1,3C410.9,218.3,406.5,220,401.3,220z"/>
			<path class="st1" d="M445.7,184.1l15.9,35.4h-4.8l-3.5-7.8h-20.2l-3.4,7.8h-4.8l15.9-35.4H445.7z M443.2,188.5l-8.4,19.1h16.8
				L443.2,188.5z"/>
		</g>
	</g>
	<path class="st1" d="M74.6,162.2v6.4H26.8V17.3h54.1l-2.1,12L67.6,40l-5.1,16.7l-7,13.3l-7.1,9.2v13.6l7.9,8l14.1-7.2L78.8,83
		l6.6,1.2l2.6,12.6l-21.5,24.1l-3.7,9.1l2.1,8.1l21.1,5.3l0.6,3.7L84,162.2H74.6z M80.9,17.3l12.6,11l19.7,12.2l12.6,16.7l9.8,30.7
		l-0.9,25.4l-7.2,24l-20.7,6.2l-0.1,6.2v3.8l0,0l0.8,8.7H118v6.4h45V17.3H80.9z M70.3,56.5l8.7-7.8h-6.6L70.3,56.5z"/>
</g>
</svg>
