<?xml version="1.0" encoding="utf-8"?>
<!-- Generator: Adobe Illustrator 28.1.0, SVG Export Plug-In . SVG Version: 6.00 Build 0)  -->
<svg version="1.1" id="Layer_1" xmlns="http://www.w3.org/2000/svg" xmlns:xlink="http://www.w3.org/1999/xlink" x="0px" y="0px"
	 viewBox="0 0 192 192" style="enable-background:new 0 0 192 192;" xml:space="preserve">
<style type="text/css">
	.st0{fill:#2F5574;}
</style>
<g>
	<g>
		<path class="st0" d="M45.3,82.9c-4.3-1.2-8.1-2.1-10.6-3.5c-1.3-0.7-2.2-1.5-2.9-2.5c-0.6-1-1-2.2-1-3.8c0-2.1,0.9-3.8,2.5-5.2
			c1.7-1.4,4-2.2,7.1-2.2c5.6,0,11.8,2.5,17.7,7.6l0.9,0.8L67.8,53l-0.6-0.4c-8.4-6-17.9-8.9-28.7-8.9C28.4,43.8,20,47.2,14,53.2
			c-5.9,5.9-9.2,14.1-9.2,23.4c0,7.9,2.2,13.8,6.6,18.2c4.4,4.5,11,7.4,19.6,9.7c5.3,1.4,9.3,2.7,11.8,4.5c2.5,1.8,3.5,3.9,3.6,7.6
			c0,2.7-1,4.9-2.9,6.6c-1.9,1.7-4.6,2.7-8,2.7c-7.2,0-14.4-4.3-22-13.1l-0.8-0.9L0.2,133.6l0.5,0.5C11,144.2,21.5,148.7,35,148.6
			h0.1c11.3-0.1,20.7-3.7,27.2-10c6.5-6.3,10.1-15.2,10.1-25.6c0-9.2-2.4-15.6-7.1-20.3C60.5,88.1,53.8,85.3,45.3,82.9"/>
		<polygon class="st0" points="82.8,46.7 82.9,145.8 110.8,145.7 110.7,45.7 82.8,45.9 		"/>
		<path class="st0" d="M184.7,92.2c-4.6-4.6-11.3-7.4-19.8-9.7c-4.3-1.2-8.1-2.1-10.6-3.5c-1.3-0.7-2.2-1.5-2.9-2.5
			c-0.6-1-1-2.2-1-3.8c0-2.1,0.9-3.8,2.5-5.2c1.7-1.4,4-2.2,7.1-2.2c5.6,0,11.8,2.5,17.6,7.6l0.9,0.8l8.9-21l-0.6-0.4
			c-8.4-6-17.9-8.9-28.7-8.9c-10.2,0.1-18.6,3.5-24.5,9.4c-5.9,5.9-9.2,14.1-9.2,23.4c0,7.9,2.2,13.8,6.6,18.2s11,7.4,19.6,9.7
			c5.3,1.4,9.3,2.7,11.8,4.5c2.5,1.8,3.5,3.9,3.6,7.6c0,2.6-1,4.9-3,6.6c-1.9,1.7-4.6,2.7-8,2.7c-7.2,0-14.4-4.3-21.9-13.1l-0.8-0.9
			l-12.6,21.6l0.5,0.5c10.3,10.1,20.7,14.6,34.3,14.5h0.1c11.3-0.1,20.7-3.7,27.2-10c6.5-6.3,10.1-15.2,10.1-25.6
			C191.7,103.3,189.4,96.9,184.7,92.2"/>
	</g>
</g>
</svg>
